<svg height="610pt" viewBox="-26 -19 610 610.66635" width="610pt" xmlns="http://www.w3.org/2000/svg">
    <g fill="currentColor">
    <path  d="m375.359375 378.792969v-32.957031c-.019531-18.628907-15.113281-33.722657-33.742187-33.742188h-113.089844v-56.238281h-17.496094v56.238281h-134.761719c-18.628906.019531-33.722656 15.113281-33.742187 33.742188v32.957031h17.496094v-32.957031c.007812-8.964844 7.277343-16.234376 16.246093-16.246094h265.347657c8.972656.011718 16.234374 7.28125 16.246093 16.246094v32.957031zm0 0"/>
    <path d="m290.582031 41.8125h-68.132812c-5.003907-.003906-9.777344-2.109375-13.15625-5.800781l-24.71875-27.042969c-5.226563-5.707031-12.605469-8.9609375-20.34375-8.96875h-81.449219c-15.210938.0195312-27.539062 12.347656-27.550781 27.554688v187.910156c.011719 15.210937 12.339843 27.535156 27.550781 27.550781h3.824219c15.210937-.015625 27.539062-12.339844 27.558593-27.550781v-102.398438c.027344-24.867187 20.179688-45.023437 45.050782-45.046875h158.894531c-.742187-14.671875-12.839844-26.191406-27.527344-26.207031zm0 0"/>
    <path d="m131.660156 113.066406v102.402344c.007813 9.976562-3.3125 19.679688-9.433594 27.558594h212.875c15.21875-.019532 27.546876-12.347656 27.566407-27.558594v-102.402344c-.019531-15.210937-12.347657-27.535156-27.566407-27.550781h-175.886718c-15.210938.015625-27.542969 12.339844-27.554688 27.550781zm0 0"/>
    <path d="m197.78125 443.648438c-1.507812-9.285157-9.523438-16.109376-18.929688-16.125h-52.417968c-4.410156-.003907-8.625-1.863282-11.605469-5.121094l-19.011719-20.796875c-3.636718-3.96875-8.773437-6.234375-14.15625-6.238281h-62.660156c-10.582031.011718-19.164062 8.59375-19.175781 19.179687v138.773437c.011719 10.585938 8.59375 19.167969 19.175781 19.179688h2.945312c10.582032-.011719 19.164063-8.59375 19.175782-19.179688v-73c.023437-20.242187 16.433594-36.652343 36.675781-36.671874zm0 0"/>
    <path d="m213.097656 461.144531h-135.300781c-10.585937.011719-19.164063 8.589844-19.179687 19.175781v73c.007812 6.773438-1.871094 13.414063-5.421876 19.179688h159.902344c10.589844-.011719 19.164063-8.59375 19.179688-19.179688v-73c-.015625-10.585937-8.589844-19.164062-19.179688-19.175781zm0 0"/>
    <path d="m522.605469 443.648438c-1.515625-9.285157-9.527344-16.109376-18.933594-16.125h-52.410156c-4.414063-.003907-8.625-1.863282-11.609375-5.121094l-19.015625-20.804688c-3.636719-3.972656-8.773438-6.234375-14.15625-6.238281h-62.652344c-10.59375.007813-19.175781 8.597656-19.179687 19.1875v138.773437c.007812 10.585938 8.589843 19.167969 19.179687 19.179688h2.9375c10.589844-.011719 19.167969-8.59375 19.179687-19.179688v-73c.027344-20.242187 16.429688-36.652343 36.671876-36.671874zm0 0"/>
    <path d="m537.917969 461.144531h-135.300781c-10.585938.011719-19.164063 8.589844-19.175782 19.175781v73c.007813 6.773438-1.871094 13.414063-5.433594 19.179688h159.90625c10.59375-.011719 19.175782-8.59375 19.183594-19.179688v-73c-.007812-10.585937-8.589844-19.164062-19.179687-19.175781zm0 0"/>
    </g>
</svg>